# xmcd
#
# Track frame offsets:
# 150
# 12795
# 32845
# 50878
# 66912
# 84811
# 99845
# 112973
# 130700
# 144744
# 159832
# 172328
# 187787
# 203556
#
# Disc length: 3023 seconds
#
#
# Revision: 0
# Processed by: cddbd v1.5.1PL0 Copyright (c) Steve Scherf et al.
# Submitted via: FreeRIP 2.942 
#
DISCID=af0bcd0e
DTITLE=Hat Fitz - Hat Fitz and Freakz
DYEAR=1900
DGENRE=Blues
TTITLE0=Shake Em
TTITLE1=Mojo Hand
TTITLE2=Bitchmar
TTITLE3=Louis Collins
TTITLE4=Miss Mable
TTITLE5=Monday Booze
TTITLE6=Gibbo's Goss
TTITLE7=Hold My Hand
TTITLE8=Preachin
TTITLE9=Krawlin King Snake
TTITLE10=Johnny Hardy
TTITLE11=Highway 49
TTITLE12=Po Boy
TTITLE13=Bundy Shuff
EXTD=
EXTT0=
EXTT1=
EXTT2=
EXTT3=
EXTT4=
EXTT5=
EXTT6=
EXTT7=
EXTT8=
EXTT9=
EXTT10=
EXTT11=
EXTT12=
EXTT13=
PLAYORDER=
